Coordinates
version=1
nRows=26
nColumns=30
inDegrees=yes

Units are S.I. units (second, meters, Newtons, ...)
Angles are in degrees.

endheader
time	floatyaw	floatroll	floatpitch	floatx	floaty	floatz	pro_sup_l	deviation_l	flexion_l	cmc_flexion_l	cmc_abduction_l	mp_flexion_l	ip_flexion_l	2mcp_flexion_l	2mcp_abduction_l	2pm_flexion_l	2md_flexion_l	3mcp_flexion_l	3mcp_abduction_l	3pm_flexion_l	3md_flexion_l	4mcp_flexion_l	4mcp_abduction_l	4pm_flexion_l	4md_flexion_l	5mcp_flexion_l	5mcp_abduction_l	5pm_flexion_l	5md_flexion_l
-0.495000	-160.147433	-5.066637	-73.570646	0.078301	-0.180404	-0.020650	98.933600	0.355972	-1.535164	14.947626	0.502415	-25.288496	-40.980382	31.308732	6.865757	42.074534	29.431419	24.759673	3.973790	44.272528	29.222845	14.499429	-4.415562	51.455992	35.587309	0.770372	-7.544971	61.704297	42.533769
-0.485000	-160.147433	-5.066637	-73.570646	0.078296	-0.180387	-0.020668	98.959934	0.348863	-1.532722	14.944020	0.493794	-25.302984	-41.018644	31.328056	6.865333	42.104529	29.442105	24.764197	3.978723	44.280686	29.224608	14.503674	-4.414096	51.463610	35.589020	0.786045	-7.555984	61.712279	42.523536
-0.475000	-160.147433	-5.066637	-73.570646	0.078285	-0.180369	-0.020695	98.975613	0.335321	-1.534430	14.928777	0.512171	-25.323684	-41.048069	31.343494	6.862834	42.156382	29.463144	24.769631	3.984731	44.300310	29.234672	14.513294	-4.411267	51.472297	35.590666	0.805452	-7.567323	61.719138	42.515231
-0.465000	-160.147433	-5.066637	-73.570646	0.078270	-0.180349	-0.020733	98.975657	0.320545	-1.540615	14.897207	0.550708	-25.345740	-41.059519	31.353000	6.859347	42.214927	29.486303	24.775758	3.990899	44.322676	29.247587	14.523690	-4.407575	51.479821	35.591088	0.824826	-7.576538	61.722996	42.510073
-0.455000	-160.147433	-5.066637	-73.570646	0.078251	-0.180325	-0.020786	98.957865	0.311936	-1.550718	14.846911	0.597813	-25.365599	-41.050076	31.355640	6.856359	42.263362	29.502873	24.781690	3.995813	44.339884	29.258023	14.530040	-4.403341	51.483695	35.589239	0.840342	-7.582330	61.723686	42.508581
-0.445000	-160.147433	-5.066637	-73.570646	0.078226	-0.180297	-0.020854	98.922839	0.316342	-1.563270	14.778851	0.642196	-25.382114	-41.023969	31.352502	6.854903	42.290359	29.507621	24.785634	3.998003	44.349456	29.263911	14.529843	-4.398528	51.482152	35.584702	0.849456	-7.584679	61.722677	42.510575
-0.435000	-160.147433	-5.066637	-73.570646	0.078191	-0.180263	-0.020937	98.872768	0.337070	-1.576337	14.697769	0.676140	-25.396113	-40.990285	31.347130	6.854813	42.294032	29.500644	24.785778	3.996492	44.354624	29.266820	14.524045	-4.392794	51.474730	35.577930	0.851653	-7.584297	61.721850	42.515219
-0.425000	-160.147433	-5.066637	-73.570646	0.078144	-0.180224	-0.021035	98.809661	0.372218	-1.588210	14.611391	0.696116	-25.409148	-40.958709	31.344824	6.854704	42.281080	29.486459	24.782003	3.991175	44.360457	29.269665	14.516255	-4.385799	51.462350	35.570172	0.848383	-7.581909	61.721919	42.521141
-0.415000	-160.147433	-5.066637	-73.570646	0.078079	-0.180180	-0.021144	98.734244	0.415291	-1.597862	14.528169	0.702094	-25.422377	-40.935323	31.350823	6.852945	42.261816	29.471013	24.777000	3.982895	44.369270	29.273945	14.510969	-4.377663	51.446881	35.563030	0.842709	-7.577902	61.721367	42.526528
-0.405000	-160.147433	-5.066637	-73.570646	0.077996	-0.180133	-0.021263	98.646290	0.457714	-1.604902	14.454231	0.697196	-25.436084	-40.920369	31.368288	6.849109	42.243810	29.458249	24.775568	3.973226	44.378989	29.278746	14.512136	-4.369326	51.430260	35.557756	0.839128	-7.572501	61.716500	42.529118
-0.395000	-160.147433	-5.066637	-73.570646	0.077894	-0.180086	-0.021387	98.546149	0.491839	-1.609228	14.391083	0.687863	-25.449735	-40.908910	31.397405	6.844793	42.227843	29.448176	24.782295	3.964086	44.385411	29.282024	14.522641	-4.362441	51.413556	35.554603	0.843328	-7.566299	61.702791	42.526369
-0.385000	-160.147433	-5.066637	-73.570646	0.077775	-0.180033	-0.021514	98.436344	0.513059	-1.610788	14.335553	0.683312	-25.462231	-40.893912	31.436218	6.842974	42.208884	29.437671	24.799066	3.957305	44.386287	29.282863	14.544325	-4.358616	51.396579	35.552701	0.861274	-7.560797	61.677203	42.516224
-0.375000	-160.147433	-5.066637	-73.570646	0.077639	-0.179971	-0.021644	98.321877	0.520518	-1.609568	14.282127	0.693115	-25.472292	-40.870306	31.482256	6.846213	42.181543	29.423594	24.823902	3.954246	44.384051	29.282875	14.577767	-4.358382	51.378550	35.550688	0.897287	-7.558649	61.640625	42.498456
-0.365000	-160.147433	-5.066637	-73.570646	0.077487	-0.179894	-0.021780	98.208530	0.516686	-1.605491	14.226183	0.722632	-25.479271	-40.838383	31.533124	6.855131	42.146043	29.406078	24.851612	3.955555	44.385217	29.285701	14.621329	-4.360638	51.359748	35.547927	0.951421	-7.563283	61.599189	42.475984
-0.355000	-160.147433	-5.066637	-73.570646	0.077318	-0.179798	-0.021923	98.099852	0.506297	-1.597882	14.166167	0.767263	-25.484623	-40.805558	31.585303	6.868288	42.110238	29.389511	24.875723	3.961013	44.396774	29.294927	14.669810	-4.363127	51.343143	35.545577	1.017243	-7.577719	61.563497	42.455189
-0.345000	-160.147433	-5.066637	-73.570646	0.077130	-0.179683	-0.022076	97.994919	0.494827	-1.584795	14.103849	0.807882	-25.493633	-40.786255	31.632451	6.883337	42.086142	29.380360	24.890722	3.969480	44.421942	29.311693	14.713990	-4.363675	51.334519	35.546626	1.081531	-7.602828	61.545475	42.444492
-0.335000	-160.147433	-5.066637	-73.570646	0.076925	-0.179554	-0.022238	97.888942	0.486432	-1.563121	14.043179	0.811031	-25.516089	-40.799675	31.665403	6.898382	42.083710	29.383316	24.893799	3.978977	44.457949	29.333474	14.742576	-4.361432	51.340094	35.554324	1.127242	-7.635893	61.553333	42.451066
-0.325000	-160.147433	-5.066637	-73.570646	0.076703	-0.179416	-0.022410	97.777082	0.481515	-1.530032	13.988549	0.737227	-25.564328	-40.864859	31.674831	6.912617	42.106430	29.398548	24.885747	3.986996	44.497021	29.354715	14.747105	-4.357521	51.362135	35.569491	1.139917	-7.670563	61.585953	42.476531
-0.315000	-160.147433	-5.066637	-73.570646	0.076469	-0.179277	-0.022599	97.659323	0.475046	-1.484980	13.942668	0.557088	-25.648394	-40.993315	31.655441	6.926098	42.151475	29.421992	24.870954	3.991152	44.529596	29.368980	14.728379	-4.354890	51.394684	35.588156	1.115516	-7.698684	61.629297	42.513667
-0.305000	-160.147433	-5.066637	-73.570646	0.076226	-0.179136	-0.022821	97.542798	0.457493	-1.430601	13.904041	0.268479	-25.770530	-41.182064	31.609387	6.938987	42.213628	29.448351	24.856559	3.990145	44.547891	29.371584	14.700948	-4.357405	51.422413	35.601337	1.065842	-7.713423	61.658079	42.546703
-0.295000	-160.147433	-5.066637	-73.570646	0.075970	-0.178978	-0.023105	97.438620	0.419731	-1.371718	13.864491	-0.096517	-25.922869	-41.411739	31.546906	6.950670	42.289970	29.474757	24.850959	3.984773	44.548783	29.361776	14.691972	-4.368215	51.424966	35.598070	1.018051	-7.712445	61.644287	42.556417
-0.285000	-160.147433	-5.066637	-73.570646	0.075692	-0.178775	-0.023494	97.352957	0.361230	-1.313400	13.807823	-0.482208	-26.090839	-41.652374	31.483647	6.959180	42.382640	29.502894	24.862357	3.978346	44.536105	29.343899	14.733464	-4.387741	51.386402	35.570900	1.007696	-7.699687	61.570251	42.528526
-0.275000	-160.147433	-5.066637	-73.570646	0.075370	-0.178484	-0.024042	97.275823	0.298350	-1.259970	13.710820	-0.833447	-26.260684	-41.874327	31.435856	6.961412	42.498591	29.538613	24.898311	3.975939	44.522014	29.327063	14.850981	-4.412079	51.305543	35.521057	1.068201	-7.684387	61.440449	42.461434
-0.265000	-160.147433	-5.066637	-73.570646	0.074971	-0.178064	-0.024804	97.173966	0.268306	-1.215799	13.547116	-1.119154	-26.425886	-42.057778	31.415487	6.954441	42.646899	29.589562	24.966460	3.982539	44.525628	29.322895	15.054420	-4.432894	51.200832	35.459871	1.221066	-7.676997	61.285905	42.369387
-0.255000	-160.147433	-5.066637	-73.570646	0.074450	-0.177481	-0.025827	96.994082	0.325487	-1.186908	13.292967	-1.341248	-26.587454	-42.194936	31.427103	6.937521	42.834798	29.662130	25.075093	4.000880	44.567178	29.341428	15.335627	-4.439418	51.105071	35.404666	1.470365	-7.683543	61.157993	42.279004
-0.245000	-160.147433	-5.066637	-73.570646	0.073745	-0.176713	-0.027140	96.677623	0.529800	-1.181548	12.932247	-1.525109	-26.747706	-42.284203	31.467327	6.913513	43.063442	29.758672	25.231791	4.029930	44.658396	29.386210	15.673898	-4.422150	51.050517	35.370349	1.803418	-7.701522	61.111921	42.219534
